{"title":"Undo (1994) - Shunji Iwai","uid":11332142,"size":1191026718,"categoryP":"video","categoryS":"movies","magnet":"?xt=urn:btih:20ef30f049c093b190d43d70b4655c21e672d600&amp;dn=Undo+%281994%29+-+Shunji+Iwai&amp;tr=udp%3A%2F%2Ftracker.openbittorrent.com%3A80&amp;tr=udp%3A%2F%2Fopen.demonii.com%3A1337&amp;tr=udp%3A%2F%2Ftracker.coppersurfer.tk%3A6969&amp;tr=udp%3A%2F%2Fexodus.desync.com%3A6969","seeders":0,"leechers":1,"uploader":"cavallone","files":1,"time":1414696882,"description":"Plot: Moemi is not overly pleased when Yukio brings home a couple of turtles to keep her company. Although Yukio works at home as a writer, Moemi feels neglected and desired a dog or a cat, but neither is allowed in their apartment. He drills a hole in the front of one turtle's shell so that it can be taken for walks on a leash, but Moemi spares the second from the same fate by proclaiming it &quot;The House Turtle.&quot; Their lives seem reasonably happy until she has her braces removed, and Yukio finds kissing her less satisfying. She soon starts tying up everything in her sight with knotted twine, starting with the turtles. A psychiatrist diagnoses &quot;Obsessive Knot-Binding Syndrome&quot; due to deficiencies in her relationship with Yukio. Moemi continues to expand her activities, tying herself in knots with cords stretching across the apartment. The doctor tells Yukio that her illness has reached a critical point, and that he should tie her up that evening. This he proceeds to do, with her encouraging him to bind her more and more. Where will this end?\n\nRip specs:\n\nGeneral\nUnique ID : 205495530761217717704965916611277674851 (0x9A98FFE6A4859CF8B1D4A2E0CBFAD963)\nComplete name : Undo 1994 -Shunji Iwai.mkv\nFormat : Matroska\nFormat version : Version 2\nFile size : 1.11 GiB\nDuration : 47mn 17s\nOverall bit rate : 3 358 Kbps\nMovie name : Undo\nEncoded date : UTC 2012-12-11 14:18:11\nWriting application : mkvmerge v5.8.0 ('No Sleep / Pillow') built on Sep 2 2012 15:37:04\nWriting library : libebml v1.2.3 + libmatroska v1.3.0\n\nVideo\nID : 1\nFormat : AVC\nFormat/Info : Advanced Video Codec\nFormat profile : &lt;a class=&quot;__cf_email__&quot; href=&quot;/cdn-cgi/l/email-protection&quot; data-cfemail=&quot;ca82a3ada28a86f9e4f8&quot;&gt;[email&amp;#160;protected]&lt;/a&gt;&lt;script cf-hash='f9e31' type=&quot;text/javascript&quot;&gt;\n/* &lt;![CDATA[ */!function(){try{var t=&quot;currentScript&quot;in document?document.currentScript:function(){for(var t=document.getElementsByTagName(&quot;script&quot;),e=t.length;e--;)if(t[e].getAttribute(&quot;cf-hash&quot;))return t[e]}();if(t&amp;&amp;t.previousSibling){var e,r,n,i,c=t.previousSibling,a=c.getAttribute(&quot;data-cfemail&quot;);if(a){for(e=&quot;&quot;,r=parseInt(a.substr(0,2),16),n=2;a.length-n;n+=2)i=parseInt(a.substr(n,2),16)^r,e+=String.fromCharCode(i);e=document.createTextNode(e),c.parentNode.replaceChild(e,c)}}}catch(u){}}();/* ]]&gt; */&lt;/script&gt;\nFormat settings, CABAC : Yes\nFormat settings, ReFrames : 16 frames\nCodec ID : V_MPEG4/ISO/AVC\nDuration : 47mn 17s\nBit rate : 3 099 Kbps\nWidth : 612 pixels\nHeight : 454 pixels\nDisplay aspect ratio : 1.597\nOriginal display aspect ratio : 1.598\nFrame rate mode : Constant\nFrame rate : 23.976 fps\nColor space : YUV\nChroma subsampling : 4:2:0\nBit depth : 8 bits\nScan type : Progressive\nBits/(Pixel*Frame) : 0.465\nStream size : 1.02 GiB (92%)\nWriting library : x264 core 129 r2230 1cffe9f\nEncoding settings : cabac=1 / ref=16 / deblock=1:-3:-3 / analyse=0x3:0x133 / me=umh / subme=11 / psy=1 / psy_rd=0.90:0.00 / mixed_ref=1 / me_range=64 / chroma_me=1 / trellis=2 / 8x8dct=1 / cqm=0 / deadzone=21,11 / fast_pskip=0 / chroma_qp_offset=-2 / threads=6 / lookahead_threads=1 / sliced_threads=0 / nr=0 / decimate=1 / interlaced=0 / bluray_compat=0 / constrained_intra=0 / bframes=12 / b_pyramid=2 / b_adapt=2 / b_bias=0 / direct=3 / weightb=1 / open_gop=0 / weightp=2 / keyint=250 / keyint_min=23 / scenecut=40 / intra_refresh=0 / rc_lookahead=250 / rc=crf / mbtree=1 / crf=14.0 / qcomp=0.60 / qpmin=0 / qpmax=69 / qpstep=4 / ip_ratio=1.40 / aq=2:1.00\nLanguage : English\nDefault : Yes\nForced : No\n\nAudio\nID : 2\nFormat : AC-3\nFormat/Info : Audio Coding 3\nMode extension : CM (complete main)\nFormat settings, Endianness : Big\nCodec ID : A_AC3\nDuration : 47mn 17s\nBit rate mode : Constant\nBit rate : 192 Kbps\nChannel(s) : 2 channels\nChannel positions : Front: L R\nSampling rate : 48.0 KHz\nBit depth : 16 bits\nCompression mode : Lossy\nStream size : 65.0 MiB (6%)\nTitle : Japanese\nLanguage : Japanese\nDefault : Yes\nForced : No\n\nText\nID : 3\nFormat : UTF-8\nCodec ID : S_TEXT/UTF8\nCodec ID/Info : UTF-8 Plain Text\nTitle : English\nLanguage : English\nDefault : Yes\nForced : No\n\nMenu\n00:00:00.000 : en:Chapter 1\n00:06:22.734 : en:Chapter 2\n00:10:01.968 : en:Chapter 3\n00:17:22.302 : en:Chapter 4\n00:22:26.270 : en:Chapter 5\n00:25:04.737 : en:Chapter 6\n00:29:47.471 : en:Chapter 7\n00:37:15.172 : en:Chapter 8\n00:43:29.406 : en:Chapter 9","torrent":{"xt":"urn:btih:20ef30f049c093b190d43d70b4655c21e672d600","amp;dn":"Undo+%281994%29+-+Shunji+Iwai","amp;tr":["udp%3A%2F%2Ftracker.openbittorrent.com%3A80","udp%3A%2F%2Fopen.demonii.com%3A1337","udp%3A%2F%2Ftracker.coppersurfer.tk%3A6969","udp%3A%2F%2Fexodus.desync.com%3A6969"],"infoHash":"20ef30f049c093b190d43d70b4655c21e672d600","infoHashBuffer":{"type":"Buffer","data":[32,239,48,240,73,192,147,177,144,212,61,112,180,101,92,33,230,114,214,0]},"announce":[],"urlList":[]}}